<svg xmlns="http://www.w3.org/2000/svg" width="700" height="44.301" viewBox="0 0 700 44.301">
  <path id="hero-logo" d="M49.127,267.162q0,.833-.209,1.026t-1.17.1a96.035,96.035,0,0,0-12.667-.257,3.356,3.356,0,0,1-1.588-.145c-.224-.139-.336-.466-.336-.978q0-1.025,1.7-1.251a2.685,2.685,0,0,0,2.694-2.886v-12.6a3.6,3.6,0,0,0-.321-1.845q-.32-.464-1.506-.464H13.052a2.7,2.7,0,0,0-1.748.354,3.058,3.058,0,0,0-.336,1.827v12.731q0,1.829,4.008,2.886,1.762.479,1.764,1.251,0,.8-.289.994a3.517,3.517,0,0,1-1.6.128,96.027,96.027,0,0,0-12.667.257q-.963.1-1.17-.1T.8,267.162q0-.833,1.378-.962a3.1,3.1,0,0,0,3.143-3.431V231.985q0-2.982-3.56-3.752A7.628,7.628,0,0,1,.24,227.8c-.16-.095-.24-.326-.24-.688a2.13,2.13,0,0,1,.064-.61q.193-.609,1.892-.512a94.252,94.252,0,0,0,13.083,0,2.061,2.061,0,0,1,1.17.128q.273.193.273.994,0,.609-1.443.93a13.637,13.637,0,0,0-3.079.866,2.881,2.881,0,0,0-.993,2.6v10.84a1.956,1.956,0,0,0,2.179,2.245h22.32A2.842,2.842,0,0,0,37.1,244.3a3.1,3.1,0,0,0,.449-2.084V231.182a2.55,2.55,0,0,0-.9-2.308,9.076,9.076,0,0,0-2.693-.77q-1.8-.353-1.8-1.122c0-.578.107-.94.321-1.091a3.172,3.172,0,0,1,1.668-.1,48.823,48.823,0,0,0,7.312.16q2.66-.126,5.354-.288a2.5,2.5,0,0,1,1.14.16q.24.161.239,1.027,0,.833-1.379.994-3.526.385-3.527,3.334v31.586a2.565,2.565,0,0,0,1.122,2.309,11.42,11.42,0,0,0,3.335,1.122Q49.125,266.488,49.127,267.162Zm68.535-20.267a20.749,20.749,0,0,1-6.862,15.714,22.773,22.773,0,0,1-16.195,6.349q-9.94,0-16.514-5.965a20.565,20.565,0,0,1-6.734-15.905,20.869,20.869,0,0,1,6.831-15.841,23.178,23.178,0,0,1,16.417-6.285q9.877,0,16.419,6.125A20.725,20.725,0,0,1,117.662,246.895Zm-6.51,1.091q0-9.331-5.1-14.75-4.907-5.2-12.956-5.2a13.86,13.86,0,0,0-10.95,4.922q-4.28,4.923-4.281,12.81,0,9.461,4.97,14.88,4.841,5.259,13.147,5.258a13.735,13.735,0,0,0,10.935-4.937Q111.152,256.035,111.152,247.986Zm61.429,12.025a30.114,30.114,0,0,0-1.09,7.7q0,.609-2.052.513-5.066-.257-12.538-.257-7.954,0-14.174.321-.931.063-1.154-.145a1.424,1.424,0,0,1-.224-.978q0-.833,1.378-.962,3.143-.32,3.143-3.367v-29.6a7.072,7.072,0,0,0-.609-3.335,4.878,4.878,0,0,0-2.822-1.988c-.833-.3-1.2-.781-1.09-1.443q.1-.705.415-.834a4.79,4.79,0,0,1,1.668.033,57.327,57.327,0,0,0,11.159-.064,9.385,9.385,0,0,1,1.315-.064.862.862,0,0,1,.737.866,1.127,1.127,0,0,1-.417,1.186,6.092,6.092,0,0,1-1.315.385,5.8,5.8,0,0,0-2.822,1.17,4.537,4.537,0,0,0-.576,2.774v28.7q0,2.693,1.812,3.671t6.589.978q4.552,0,6.749-1.17a8.479,8.479,0,0,0,3.576-4.409q.513-1.283,1.572-.867Q172.839,259.081,172.58,260.011Zm39.829-33.478q0,.8-1.733,1.315-3.88,1.155-3.88,3.014v31.2q0,3.015,3.56,3.656,1.764.32,1.764,1.251,0,.8-.3.994a3.758,3.758,0,0,1-1.652.128,118.517,118.517,0,0,0-13.083,0q-1.187.1-1.379-.449a2.61,2.61,0,0,1-.064-.673q0-.641,1.443-.962a16.793,16.793,0,0,0,3.11-.866,2.875,2.875,0,0,0,1.027-2.63V231.054q0-2.66-3.591-3.27-1.508-.257-1.507-.93c0-.621.081-1,.239-1.139a1.705,1.705,0,0,1,1.14-.112,56.863,56.863,0,0,0,12.922-.128,6.227,6.227,0,0,1,1.476-.1Q212.409,225.541,212.409,226.533Zm69.445,19.625q0,11.16-7.376,16.932-6.9,5.323-19.177,5.323-1.025,0-4.649-.193t-5.58-.192q-2.63,0-5.836.257-1.379.128-1.379-1.122,0-.833,1.379-.962a3.1,3.1,0,0,0,3.142-3.431v-30.72a3.031,3.031,0,0,0-.706-2.342,6.613,6.613,0,0,0-2.533-.9,7.785,7.785,0,0,1-1.988-.546,1.2,1.2,0,0,1-.418-.961.835.835,0,0,1,.674-1c.106-.021.578-.063,1.411-.127q6.9-.448,18.279-.449,11.062,0,17.8,5.322Q281.853,236.572,281.854,246.158Zm-6.7.866q0-18.6-19.112-18.6H251.55q-3.528.32-3.527,1.956v29.757q0,3.145,1.667,4.2t6.67,1.058Q275.152,265.4,275.151,247.023ZM346.4,267.386a1.942,1.942,0,0,1-.418,1.027c-.127.085-.427.064-.9-.064a57.2,57.2,0,0,0-13.4-.192q-1.668.128-1.828-.642-.161-.9,1.058-1.379,3.463-1.411,3.463-2.63a3.889,3.889,0,0,0-.384-1.379q-2.373-5.675-3.944-9.139-2.277.128-8.016.128-4.748,0-8.082-.257-1.123,2.758-3.143,7.7a5.525,5.525,0,0,0-.448,2.02,2.764,2.764,0,0,0,1.955,2.63q3.013,1.283,2.95,1.956-.065,1.09-2.02.866a36.848,36.848,0,0,0-11.16.385q-1.346.289-1.507-.963-.128-.833,2.085-1.8,2.373-.994,4.009-4.585,6.253-13.566,8.08-17.83A140.4,140.4,0,0,0,321,226.533q.255-.992,2.534-1.86.544-.192,1.378,1.86,6.927,16.676,15.52,35.658a7.159,7.159,0,0,0,4.65,4.009Q346.56,266.618,346.4,267.386Zm-17.413-16.9q-2.116-4.811-6.606-14.911-.257-.544-.577-.545t-.545.545l-6.125,14.783q3.432.257,7.7.257Q325.459,250.615,328.987,250.487Zm78.374-23.826q0,1.09-2.052,1.7-2.341.705-5.2,4.392-5.612,7.311-6.991,9.171-3.239,4.426-5.676,8.434V261.71a4.291,4.291,0,0,0,.866,3.11,8.383,8.383,0,0,0,3.271,1.251q1.923.418,1.7,1.572a.841.841,0,0,1-.769.8,9.5,9.5,0,0,1-1.315-.1,76.741,76.741,0,0,0-12.538-.064q-1.925.352-2.116-.77-.192-1.059,1.122-1.379a6.523,6.523,0,0,0,3.415-1.716,6.09,6.09,0,0,0,.785-3.606v-8.755q-4.361-8.53-14.462-20.427a9.812,9.812,0,0,0-5.258-3.591q-1.571-.32-1.571-.93,0-1.475,1.379-1.315a52.929,52.929,0,0,0,14.141-.577,5.379,5.379,0,0,1,1.443-.128q.513.161.513,1.091,0,.705-1.636,1.315-2.79,1.057-2.79,2.276a2.865,2.865,0,0,0,.673,1.539q4.072,5.453,10.646,15.648.385.577.61.578.255,0,.641-.578,1.41-2.116,4.826-6.925t5.083-7.344a3.958,3.958,0,0,0,.833-2.115q0-1.7-2.918-2.662-1.572-.546-1.443-1.507.128-1.122,2.148-.866a45.429,45.429,0,0,0,11.256.128Q407.36,225.508,407.362,226.661Zm99.15,40.725a1.954,1.954,0,0,1-.417,1.027q-.193.128-.9-.064a57.2,57.2,0,0,0-13.4-.192q-1.668.128-1.828-.642-.159-.9,1.059-1.379,3.463-1.411,3.463-2.63a3.891,3.891,0,0,0-.384-1.379q-2.375-5.675-3.946-9.139-2.275.128-8.016.128-4.746,0-8.082-.257-1.122,2.758-3.142,7.7a5.5,5.5,0,0,0-.449,2.02,2.765,2.765,0,0,0,1.957,2.63q3.013,1.283,2.949,1.956-.063,1.09-2.02.866a36.84,36.84,0,0,0-11.159.385q-1.348.289-1.507-.963-.128-.833,2.085-1.8,2.371-.994,4.007-4.585,6.253-13.566,8.082-17.83a140.163,140.163,0,0,0,6.252-16.707q.257-.992,2.534-1.86.546-.192,1.379,1.86,6.927,16.676,15.52,35.658A7.16,7.16,0,0,0,505.2,266.2Q506.673,266.618,506.512,267.386Zm-17.413-16.9q-2.116-4.811-6.6-14.911-.257-.544-.578-.545t-.546.545l-6.125,14.783q3.432.257,7.7.257Q485.572,250.615,489.1,250.487Zm77.736,7.632a35.856,35.856,0,0,1-.93,9.844q-.193.737-1.955.577-6.767-.578-15.456-.577-12.539,0-16.675.321-1.764.159-2.149-.449-.353-.77.578-1.989,15.615-20.008,26.391-35.721a2.1,2.1,0,0,0,.417-.8q0-.513-2.821-.512H546.41q-6.221,0-8.915,1.828-2.149,1.442-3.912,5.739-.515,1.283-1.572.834-1.027-.224-.77-1.155a40.425,40.425,0,0,0,1.122-9.812q0-.705,2.02-.577,6.895.448,16.034.449,8.851,0,13.79-.321,1.666-.1,1.891.385.289.609-.577,1.731-14.494,18.343-25.878,34.792a2.619,2.619,0,0,0-.578,1.283q0,.737,1.764.9,4.265.322,11.031.321,6.83,0,9.235-1.539,2.053-1.316,3.432-5.74.385-1.22,1.506-.93A1.048,1.048,0,0,1,566.836,258.119Zm71.443-31.2q0,.642-1.442.994a8.632,8.632,0,0,0-3.176,1.155,3.909,3.909,0,0,0-.9,2.982v18.374q0,8.82-4.586,13.6-4.713,4.938-13.661,4.938-18.919,0-18.919-17.8V231.921q0-3.047-3.56-3.688a4.89,4.89,0,0,1-1.491-.418.888.888,0,0,1-.273-.769q0-.994.482-1.155a5.519,5.519,0,0,1,1.506-.031,94.748,94.748,0,0,0,13.18,0q.962-.1,1.17.1t.209,1.091q0,.674-1.379.994a16.212,16.212,0,0,0-3.11.834,2.875,2.875,0,0,0-1.027,2.628v18.535q0,8.178,3.4,11.993t10.935,3.815q12.922,0,12.922-14.877V232.5a4.045,4.045,0,0,0-1.121-3.174A6.243,6.243,0,0,0,624.3,228.1q-1.764-.32-1.764-1.186c0-.663.17-1.046.513-1.155a8.322,8.322,0,0,1,1.507-.032,101.821,101.821,0,0,0,12.282,0q1.281-.128,1.41.513A5.256,5.256,0,0,1,638.279,226.918ZM700,268.092q.032.737-1.25.737-11.513,0-21.742-19.721-3.944.193-4.2.192v13.468a2.27,2.27,0,0,0,.736,2,9.4,9.4,0,0,0,3.271.882q1.762.287,1.764,1.251,0,.8-.288.994a3.526,3.526,0,0,1-1.6.128,107.134,107.134,0,0,0-12.667.257q-1.377.1-1.378-1.122,0-.833,1.378-.962a3.1,3.1,0,0,0,3.143-3.431v-30.72q0-3.047-3.56-3.752-1.764-.354-1.764-1.122a1.049,1.049,0,0,1,1.186-1.186,5.214,5.214,0,0,1,.77.064,30.266,30.266,0,0,0,4.008.193q.9,0,4.522-.1t6.735-.1q6.412,0,10.133,2.4a8.731,8.731,0,0,1,4.168,7.856q0,8.883-10.261,11.737a53.525,53.525,0,0,0,7.7,12.763q4.52,5.451,8.146,6.028A1.186,1.186,0,0,1,700,268.092Zm-12.891-31.009q0-4.746-2.437-6.766t-7.792-2.021a5.584,5.584,0,0,0-3.239.657q-.835.658-.833,2.839v15.1q7.758-.255,11.158-2.725Q687.109,241.893,687.109,237.083Z" transform="translate(0 -224.657)" fill="#00203e"/>
</svg>
