<?xml version="1.0" encoding="UTF-8" standalone="no"?>
<svg
   xmlns:dc="http://purl.org/dc/elements/1.1/"
   xmlns:cc="http://creativecommons.org/ns#"
   xmlns:rdf="http://www.w3.org/1999/02/22-rdf-syntax-ns#"
   xmlns:svg="http://www.w3.org/2000/svg"
   xmlns="http://www.w3.org/2000/svg"
   id="svg8"
   version="1.1"
   viewBox="0 0 23.848119 15.245029"
   height="57.619011"
   width="90.134621">
  <defs
     id="defs2" />
  <metadata
     id="metadata5">
    <rdf:RDF>
      <cc:Work
         rdf:about="">
        <dc:format>image/svg+xml</dc:format>
        <dc:type
           rdf:resource="http://purl.org/dc/dcmitype/StillImage" />
        <dc:title></dc:title>
      </cc:Work>
    </rdf:RDF>
  </metadata>
  <g
     transform="translate(-265.49901,-169.62743)"
     id="layer1">
    <g
       id="g48">
      <path
         id="path50"
         d="m 282.64377,183.40685 -0.0836,-1.19837 -2.76716,-0.2022 c -2.03319,-0.14858 -2.82619,-0.31013 -2.98971,-0.60908 -0.14643,-0.26771 -0.62845,-0.40687 -1.40933,-0.40687 -0.65273,0 -1.47184,-0.19109 -1.82023,-0.42464 -0.58163,-0.38991 -0.72694,-0.38288 -1.77663,0.0859 l -1.14319,0.51057 -2.29045,-2.39664 c -1.25976,-1.31817 -2.35178,-2.56014 -2.42672,-2.75995 -0.17989,-0.47961 0.32228,-0.96951 0.99978,-0.97535 0.29832,-0.003 0.82278,-0.30711 1.16548,-0.67675 0.34269,-0.36965 0.71576,-0.67208 0.82904,-0.67208 0.11327,0 0.27334,-0.26366 0.35571,-0.58591 0.1286,-0.50315 0.20961,-0.5351 0.57341,-0.22619 0.36335,0.30852 0.44446,0.27839 0.56972,-0.21168 0.25864,-1.0119 2.35395,-0.95601 2.73634,0.0729 0.23726,0.63847 0.76624,0.95079 1.61038,0.95079 0.27914,0 0.77444,0.27408 1.10067,0.60908 0.90357,0.92783 2.28606,1.82722 2.80869,1.82722 0.25735,0 0.78784,-0.34165 1.17887,-0.75924 0.63311,-0.67609 0.71096,-0.96663 0.71096,-2.65327 v -1.89404 l 1.32292,-0.57184 c 0.7276,-0.3145 1.32291,-0.4909 1.32291,-0.39198 0,0.0989 0.4625,0.69753 1.02777,1.33022 0.7077,0.7921 1.24328,1.15036 1.71979,1.15036 0.38062,0 0.69276,0.0914 0.69365,0.20301 9e-4,0.11168 0.57637,0.84114 1.27882,1.62104 0.70246,0.77991 1.2772,1.6131 1.2772,1.85153 0,0.23843 -0.33735,0.77864 -0.74966,1.20048 -0.41231,0.42185 -0.74965,0.93197 -0.74965,1.13363 0,0.20165 -0.18607,0.63843 -0.41349,0.97063 -0.22979,0.33566 -0.37672,0.9938 -0.33073,1.4814 0.0765,0.81151 0.0186,0.88375 -0.77074,0.96177 -0.52004,0.0514 -1.05178,0.34223 -1.361,0.74442 -0.27912,0.36304 -0.59556,0.66008 -0.70321,0.66008 -0.10765,0 -0.46959,0.32609 -0.80432,0.72465 l -0.60859,0.72464 z"
         style="fill:#b99f73;stroke-width:0.2676242" />
    </g>
  </g>
</svg>
