<svg xmlns="http://www.w3.org/2000/svg" width="17.216" height="19.357" viewBox="0 0 17.216 19.357">
  <g id="delete" transform="translate(-26.9)">
    <g id="Group_19" data-name="Group 19" transform="translate(26.9)">
      <path id="Path_85" data-name="Path 85" d="M43.579,2.786H39.552V2.129A2.132,2.132,0,0,0,37.422,0H33.594a2.132,2.132,0,0,0-2.129,2.129v.657H27.437a.537.537,0,1,0,0,1.075h.971V16.484a2.877,2.877,0,0,0,2.873,2.873h8.453a2.877,2.877,0,0,0,2.873-2.873V3.86h.971a.537.537,0,0,0,0-1.075Zm-11.04-.657a1.056,1.056,0,0,1,1.055-1.055h3.829a1.056,1.056,0,0,1,1.055,1.055v.657H32.539Zm8.994,14.355a1.8,1.8,0,0,1-1.8,1.8H31.282a1.8,1.8,0,0,1-1.8-1.8V3.86H41.537V16.484Z" transform="translate(-26.9)" fill="#8792a5"/>
      <path id="Path_86" data-name="Path 86" d="M230.237,155.97a.535.535,0,0,0,.537-.537v-9.5a.537.537,0,0,0-1.075,0v9.492A.538.538,0,0,0,230.237,155.97Z" transform="translate(-221.629 -139.613)" fill="#8792a5"/>
      <path id="Path_87" data-name="Path 87" d="M142.137,169.588a.535.535,0,0,0,.537-.537v-8.314a.537.537,0,0,0-1.075,0v8.314A.538.538,0,0,0,142.137,169.588Z" transform="translate(-137.035 -153.824)" fill="#8792a5"/>
      <path id="Path_88" data-name="Path 88" d="M318.337,169.588a.535.535,0,0,0,.537-.537v-8.314a.537.537,0,1,0-1.074,0v8.314A.535.535,0,0,0,318.337,169.588Z" transform="translate(-306.223 -153.824)" fill="#8792a5"/>
    </g>
  </g>
</svg>
